<svg xmlns="http://www.w3.org/2000/svg" viewBox="0 0 128 128">
  <path fill="#003F6C" d="M64 4C29.6 4 4 29.6 4 64s25.6 60 60 60 60-25.6 60-60S98.4 4 64 4zm2.3 84.7c-2.7 1.5-5.9 1.6-8.6.2-1.3-.9-2.5-2.1-3.5-3.4-1.6-2-3-4.2-4.1-6.6-1.2-2.6-2.3-5.2-2.4-8.1-.1-2.1-.1-4.2.4-6.3 1.1-4.8 3.7-9 7.3-12.7 3.4-3.3 7.4-5.9 12-8 1.2-.6 2.4-1.2 3.7-1.5 2.6-.6 5.2-.3 7.5 1.3 1.9 1.3 3.6 3.1 4.8 5 1.7 2.5 2.6 5.3 2.7 8.2.1 2.7-.5 5.4-1.5 7.8-1.1 2.3-2.7 4.3-4.6 6.6-1.2 1.8-2.5 3.5-4 5-2.5 2.5-5.3 4.6-8.5 6.6-1.3.9-2.7 0-3.6 1.3zm-2.4-56.1c-.7 0-1.4.2-2.1.4-4.5 1.5-8.8 4.4-12.2 7.9-4.5 4.5-8.3 9.7-11.2 15.2-1.6 2.9-2.8 5.9-3.6 9-1.1 4.3-1.6 8.7-1.2 13.1.3 4.1 1.3 8.1 2.8 11.9 1.6 4.3 4.2 8.1 7.4 11.7 1.7 1.9 4.1 3.4 6.5 4.4 3.4 1.5 7.2 2.5 11.1 2.5 5.7 0 11.4-2.1 15.8-5.7 3.9-3.2 7.2-7.1 9.4-11.7 1.4-2.7 2.3-5.6 2.9-8.6.6-3.6.7-7.3.3-11 1.3-8.1 4.8-15.6 9.5-22.6 2.7-4.5 6.2-8.6 10.1-12.2 2.1-1.9 4.5-3.6 7.2-4.9 3.2-1.4 6.6-2.2 10-2.2 4.4 0 8.8 1.4 12.3 3.9 3.7 2.7 6.9 6.5 9.3 10.8 1.5 2.7 2.5 5.7 3.2 8.7 2.4-1.8 4.8-3.4 7.4-4.7 5.1-2.6 10.7-4.1 16.5-4.1 5.6 0 11.1 1.4 15.7 4 3.7 2.1 7 5.1 9.4 8.6 1.6 2.3 2.8 4.7 3.8 7.2 1.6 3.4 2.4 7 2.3 10.6 0 3.7-1.1 7.3-3.2 10.3-2.2 3.2-5.2 6.1-8.6 8.6-3.2 2.3-6.8 4.2-10.8 5.7-4.7 1.8-9.7 2.8-14.7 2.8-5.2 0-10.3-1.1-14.8-3.1-2.3-1.1-4.4-2.6-6.5-4.4-2.8-2.4-5.4-5.4-7.5-8.6-2.1-3.2-3.8-6.6-5.1-10.1-.3-.8-.6-1.7-.9-2.5-1.2-3.5-2.3-7-3.6-10.4-2.1-5.4-4.5-10.7-7.2-15.8-2.2-3.9-4.5-7.7-7.3-11.2-4.4-5.6-9.1-10.9-14.4-15.6-2.2-2.1-4.5-4.1-7-5.8-3.7-2.7-7.7-4.9-11.8-6.6-1.4-.5-2.7-1.1-4-1.7-2.3-.8-4.7-1.3-7.1-1.3z"/>
</svg>
